{"title":"The.Burb's.1989.HDRip.Multi.Sub.720p.x264.Iou1","uid":9197158,"size":1466580858,"categoryP":"video","categoryS":"hd___movies","magnet":"?xt=urn:btih:49fa05c23edf78314875786db5e491f1171275e4&amp;dn=The.Burb%27s.1989.HDRip.Multi.Sub.720p.x264.Iou1&amp;tr=udp%3A%2F%2Ftracker.openbittorrent.com%3A80&amp;tr=udp%3A%2F%2Fopen.demonii.com%3A1337&amp;tr=udp%3A%2F%2Ftracker.coppersurfer.tk%3A6969&amp;tr=udp%3A%2F%2Fexodus.desync.com%3A6969","seeders":1,"leechers":0,"uploader":"jaybee211","files":-1,"time":1384510690,"description":"Genre                                    : Comedy\nFormat                                   : MPEG-4\nFormat profile                           : Base Media / Version 2\nCodec ID                                 : mp42\nFile size                                : 1.37 GiB\nDuration                                 : 1h 41mn\nOverall bit rate mode                    : Variable\nOverall bit rate                         : 1 930 Kbps\n\nVideo\nID                                       : 1\nFormat                                   : AVC\nFormat/Info                              : Advanced Video Codec\nFormat profile                           : &lt;a class=&quot;__cf_email__&quot; href=&quot;/cdn-cgi/l/email-protection&quot; data-cfemail=&quot;e9a1808e81a9a5dac7d8&quot;&gt;[email&amp;#160;protected]&lt;/a&gt;&lt;script cf-hash='f9e31' type=&quot;text/javascript&quot;&gt;\n/* &lt;![CDATA[ */!function(){try{var t=&quot;currentScript&quot;in document?document.currentScript:function(){for(var t=document.getElementsByTagName(&quot;script&quot;),e=t.length;e--;)if(t[e].getAttribute(&quot;cf-hash&quot;))return t[e]}();if(t&amp;&amp;t.previousSibling){var e,r,n,i,c=t.previousSibling,a=c.getAttribute(&quot;data-cfemail&quot;);if(a){for(e=&quot;&quot;,r=parseInt(a.substr(0,2),16),n=2;a.length-n;n+=2)i=parseInt(a.substr(n,2),16)^r,e+=String.fromCharCode(i);e=document.createTextNode(e),c.parentNode.replaceChild(e,c)}}}catch(u){}}();/* ]]&gt; */&lt;/script&gt;\nFormat settings, CABAC                   : Yes\nFormat settings, ReFrames                : 5 frames\nCodec ID                                 : avc1\nCodec ID/Info                            : Advanced Video Coding\nDuration                                 : 1h 41mn\nBit rate mode                            : Variable\nBit rate                                 : 1 733 Kbps\nWidth                                    : 1 280 pixels\nHeight                                   : 704 pixels\nDisplay aspect ratio                     : 16:9\nFrame rate mode                          : Variable\nFrame rate                               : 23.976 fps\nMinimum frame rate                       : 23.810 fps\nMaximum frame rate                       : 1 000.000 fps\nColor space                              : YUV\nChroma subsampling                       : 4:2:0\nBit depth                                : 8 bits\nScan type                                : Progressive\nBits/(Pixel*Frame)                       : 0.080\nStream size                              : 1.23 GiB (90%)\nWriting library                          : x264 core 130 r2273 b3065e6\n\nAudio\nID                                       : 2\nFormat                                   : AAC\nFormat/Info                              : Advanced Audio Codec\nFormat profile                           : LC\nCodec ID                                 : 40\nDuration                                 : 1h 41mn\nBit rate mode                            : Variable\nBit rate                                 : 192 Kbps\nMaximum bit rate                         : 251 Kbps\nChannel(s)                               : 2 channels\nChannel positions                        : Front: L R\nSampling rate                            : 48.0 KHz\nCompression mode                         : Lossy\nDelay relative to video                  : 83ms\nStream size                              : 139 MiB (10%)\nLanguage                                 : English\nSubtitles                                : Croation, English, Spanish, Greek, Dutch, Swedish\n\nIMDB. &lt;a href=&quot; http://www.imdb.com/title/tt0096734/&quot; rel=&quot;nofollow&quot; target=&quot;_NEW&quot;&gt; http://www.imdb.com/title/tt0096734/&lt;/a&gt;\n\nStoryline.\nThis story takes place in a typical American neighborhood, when some new neighbors come to live in the house next to Ray Peterson. These new people are really strange; nobody has ever seen them, their house is a real mess, and during the night you can hear weird noises from their basement. The only thing they know is their name: Klopeks. One day Walter (an old man of the neighborhood) suddenly disappears and everyone starts to suspect the Klopeks.\n\nSreens. &lt;a href=&quot; http://img841.imageshack.us/img841/1272/v5ri.png&quot; rel=&quot;nofollow&quot; target=&quot;_NEW&quot;&gt; http://img841.imageshack.us/img841/1272/v5ri.png&lt;/a&gt;\n\n        &lt;a href=&quot; http://img849.imageshack.us/img849/8596/6wy4.png&quot; rel=&quot;nofollow&quot; target=&quot;_NEW&quot;&gt; http://img849.imageshack.us/img849/8596/6wy4.png&lt;/a&gt;\n\n        &lt;a href=&quot; http://img706.imageshack.us/img706/3964/q6fu.png&quot; rel=&quot;nofollow&quot; target=&quot;_NEW&quot;&gt; http://img706.imageshack.us/img706/3964/q6fu.png&lt;/a&gt;\n\n        &lt;a href=&quot; http://img842.imageshack.us/img842/4537/40hw.png&quot; rel=&quot;nofollow&quot; target=&quot;_NEW&quot;&gt; http://img842.imageshack.us/img842/4537/40hw.png&lt;/a&gt;\n\n        &lt;a href=&quot; http://img194.imageshack.us/img194/2393/glw7.png&quot; rel=&quot;nofollow&quot; target=&quot;_NEW&quot;&gt; http://img194.imageshack.us/img194/2393/glw7.png&lt;/a&gt;\n\n        &lt;a href=&quot; http://img546.imageshack.us/img546/8572/oo0o.png&quot; rel=&quot;nofollow&quot; target=&quot;_NEW&quot;&gt; http://img546.imageshack.us/img546/8572/oo0o.png&lt;/a&gt;\n\nEnjoy.","torrent":{"xt":"urn:btih:49fa05c23edf78314875786db5e491f1171275e4","amp;dn":"The.Burb%27s.1989.HDRip.Multi.Sub.720p.x264.Iou1","amp;tr":["udp%3A%2F%2Ftracker.openbittorrent.com%3A80","udp%3A%2F%2Fopen.demonii.com%3A1337","udp%3A%2F%2Ftracker.coppersurfer.tk%3A6969","udp%3A%2F%2Fexodus.desync.com%3A6969"],"infoHash":"49fa05c23edf78314875786db5e491f1171275e4","infoHashBuffer":{"type":"Buffer","data":[73,250,5,194,62,223,120,49,72,117,120,109,181,228,145,241,23,18,117,228]},"announce":[],"urlList":[]}}